<svg xmlns="http://www.w3.org/2000/svg" width="456" height="291" fill="none"><path fill="#EEE" d="M65.588 255.386c.425-49.249.828-98.477 1.253-147.726 9.132 0 17.52-.042 26.653-.064l64.667-.212c7.645.127 15.311.276 22.957.404.425 0 .871 0 1.253.233.764.425.977 1.423.977 2.273.446 55.513-.149 94.802-.744 145.474"/><path stroke="#999" stroke-linecap="round" stroke-linejoin="round" stroke-width="3.271" d="M65.588 255.386c.425-49.249.828-98.477 1.253-147.726 9.132 0 17.52-.042 26.653-.064l64.667-.212c7.645.127 15.311.276 22.957.404.425 0 .871 0 1.253.233.764.425.977 1.423.977 2.273.446 55.513-.149 94.802-.744 145.474"/><path fill="#fff" stroke="#999" stroke-linecap="round" stroke-linejoin="round" stroke-width="3.271" d="M97.039 93.92h54.728a4.033 4.033 0 0 1 4.035 4.035v156.709s0 .021-.021.021H93.025s-.021 0-.021-.021V97.954a4.033 4.033 0 0 1 4.035-4.034Z"/><path fill="#EEE" d="M262.031 255.385c.425-49.248.828-98.476 1.253-147.725 9.132 0 17.521-.042 26.653-.064l64.667-.212c7.645.127 15.312.276 22.957.403.425 0 .871 0 1.253.234.765.425.977 1.423.977 2.272.446 55.514-.149 94.803-.743 145.475"/><path stroke="#999" stroke-linecap="round" stroke-linejoin="round" stroke-width="3.271" d="M262.031 255.385c.425-49.248.828-98.476 1.253-147.725 9.132 0 17.521-.042 26.653-.064l64.667-.212c7.645.127 15.312.276 22.957.403.425 0 .871 0 1.253.234.765.425.977 1.423.977 2.272.446 55.514-.149 94.803-.743 145.475M119.041 131.509H106.83v13.295h12.211v-13.295Zm24.869 0h-12.212v13.295h12.212v-13.295Zm-24.869 18.625H106.83v13.294h12.211v-13.294Zm24.869 0h-12.212v13.294h12.212v-13.294Zm-24.869 18.646H106.83v13.295h12.211V168.78Zm24.869 0h-12.212v13.295h12.212V168.78Zm-24.869 18.646H106.83v13.295h12.211v-13.295Zm24.869 0h-12.212v13.295h12.212v-13.295Zm-24.869 18.625H106.83v13.295h12.211v-13.295Zm24.869 0h-12.212v13.295h12.212v-13.295Zm-24.869 18.647H106.83v13.294h12.211v-13.294Zm24.869 0h-12.212v13.294h12.212v-13.294Zm-76.495-89.302 24.423-.213m-24.19 26.059 24.423-.213M67.88 187.108l24.424-.212m-24.868 26.058 24.401-.212m-24.72 26.079 24.423-.234m65.771-103.191 24.401-.213m-24.168 26.058 24.401-.212m-24.189 26.079 24.423-.212m-24.593 26.058 24.401-.213m-24.846 26.079 24.401-.233m82.083-103.191 24.423-.213m-24.191 26.059 24.423-.213m-24.187 26.079 24.422-.212m-24.189 26.058 24.402-.212m-24.19 26.079 24.423-.234M354.2 135.396l24.402-.213m-24.19 26.058 24.423-.212m-24.189 26.079 24.422-.212m-24.996 26.058 24.402-.213m-24.72 26.079 24.401-.233"/><path stroke="#999" stroke-linecap="round" stroke-linejoin="round" stroke-width="3.271" d="M46.347 287.05v-22.745c0-4.715 3.844-8.559 8.558-8.559h337.097c4.715 0 8.559 3.844 8.559 8.559v22.745"/><path fill="#fff" d="M196.686 289.301v-51.372c0-14.484 11.85-26.334 26.334-26.334 14.483 0 26.334 11.85 26.334 26.334v51.372"/><path stroke="#999" stroke-linecap="round" stroke-linejoin="round" stroke-width="3.271" d="M196.686 289.301v-51.372c0-14.484 11.85-26.334 26.334-26.334 14.483 0 26.334 11.85 26.334 26.334v51.372"/><path fill="#fff" d="M2.11 289.301c150.572.149 301.164-.149 451.735 0H2.11Z"/><path stroke="#999" stroke-linecap="round" stroke-linejoin="round" stroke-width="3.271" d="M2.11 289.301c150.572.149 301.164-.149 451.735 0m-255.781-49.758h49.398m-24.061 1.741v46.255m-12.53-47.402v47.402m25.293-47.402v47.401m11.021-36.357h-49.673m49.673 12.105h-49.673m49.673 13.209h-49.673M79.201 266.344H67.224v9.429H79.2v-9.429Zm24.295 0H91.519v9.429h11.977v-9.429Zm24.295 0h-11.978v9.429h11.978v-9.429Zm24.318 0h-11.978v9.429h11.978v-9.429Zm24.295 0h-11.978v9.429h11.978v-9.429Zm105.209 0h-11.978v9.429h11.978v-9.429Zm24.315 0H293.95v9.429h11.978v-9.429Zm24.296 0h-11.978v9.429h11.978v-9.429Zm24.294 0H342.54v9.429h11.978v-9.429Zm24.317 0h-11.978v9.429h11.978v-9.429ZM218.348 223.19a3.05 3.05 0 0 0 0 2.442m9.088-2.442a3.059 3.059 0 0 0 0 2.442m-12.253 3.292c3.334 4.247 11.807 4.247 15.142 0m-26.76-29.626c1.381 2.06 2.74 4.142 4.12 6.202m7.072-8.962c-.149 1.954 0 3.95.446 5.861"/><path fill="#fff" stroke="#999" stroke-linecap="round" stroke-linejoin="round" stroke-width="3.271" d="M293.888 93.92h54.728a4.033 4.033 0 0 1 4.035 4.035v156.708s0 .022-.021.022h-62.756s-.021 0-.021-.022V97.955a4.033 4.033 0 0 1 4.035-4.035Z"/><path stroke="#999" stroke-linecap="round" stroke-linejoin="round" stroke-width="3.271" d="M315.761 131.509H303.55v13.295h12.211v-13.295Zm24.848 0h-12.212v13.295h12.212v-13.295Zm-24.848 18.625H303.55v13.295h12.211v-13.295Zm24.848 0h-12.212v13.295h12.212v-13.295Zm-24.848 18.647H303.55v13.294h12.211v-13.294Zm24.848 0h-12.212v13.294h12.212v-13.294Zm-24.848 18.646H303.55v13.294h12.211v-13.294Zm24.848 0h-12.212v13.294h12.212v-13.294Zm-24.848 18.624H303.55v13.295h12.211v-13.295Zm24.848 0h-12.212v13.295h12.212v-13.295Zm-24.848 18.647H303.55v13.294h12.211v-13.294Zm24.848 0h-12.212v13.294h12.212v-13.294Zm-119.395-88.389c5.415-27.46 12.997-50.566 30.518-67.874 10.873-10.746 24.805-19.942 40.095-19.432 6.095.19 12.721 2.4 15.631 7.751 2.909 5.352-.68 13.762-6.754 13.401-6.944-.382-8.898-10.3-6.052-16.65C301.129 39 318.82 33.945 334.344 30.57"/><path stroke="#999" stroke-linecap="round" stroke-linejoin="round" stroke-width="3.271" d="M319.647 21.31c6.265 3.037 12.53 6.073 18.774 9.09a93.294 93.294 0 0 0-15.354 18.794"/><path fill="#999" d="M359.576 3.743h3.975v17.33h-3.975V3.743Zm8.743 2.727h-1.962V2.214h4.307v3.772l-1.912 4.026h-2.09l1.657-3.542Zm22.148 7.11c0-.917-.187-1.605-.56-2.064-.374-.476-.994-.714-1.861-.714-.713 0-1.274.213-1.682.638-.39.424-.654.9-.79 1.427v8.206h-3.899V13.58c0-.917-.187-1.605-.56-2.064-.374-.476-.994-.714-1.861-.714-.713 0-1.274.213-1.682.638a3.3 3.3 0 0 0-.79 1.427v8.206h-3.899V7.719h3.899v1.733a4.313 4.313 0 0 1 1.504-1.478c.645-.391 1.469-.587 2.472-.587 1.07 0 1.945.221 2.625.663a3.958 3.958 0 0 1 1.529 1.758c.509-.815 1.121-1.418 1.835-1.809.73-.408 1.665-.612 2.803-.612.866 0 1.605.153 2.217.46a3.725 3.725 0 0 1 1.478 1.222c.391.51.671 1.122.841 1.835a8.73 8.73 0 0 1 .281 2.268v7.9h-3.9V13.58Zm-37.122 7.45h3.899v6.473c.357-.594.875-1.087 1.555-1.478.696-.39 1.546-.586 2.548-.586.867 0 1.614.153 2.243.459a3.89 3.89 0 0 1 1.529 1.223c.408.51.705 1.121.892 1.835a8.72 8.72 0 0 1 .28 2.268v7.9h-3.899v-7.492c0-1.852-.85-2.778-2.549-2.778-.713 0-1.291.212-1.732.637-.442.425-.731.9-.867 1.427v8.206h-3.899V21.03Zm22.104 18.45c-1.121 0-2.132-.177-3.033-.534a7.061 7.061 0 0 1-2.268-1.504 6.799 6.799 0 0 1-1.452-2.242 7.536 7.536 0 0 1-.485-2.702c0-1.053.17-2.013.51-2.88a6.4 6.4 0 0 1 1.427-2.217 6.323 6.323 0 0 1 2.166-1.452c.833-.34 1.742-.51 2.727-.51.986 0 1.869.161 2.651.484a5.574 5.574 0 0 1 2.038 1.325c.561.561.986 1.24 1.275 2.04.305.798.458 1.681.458 2.65 0 .237-.017.518-.051.84a6.376 6.376 0 0 1-.076.765h-9.276c.152.765.509 1.393 1.07 1.886.561.493 1.402.739 2.523.739.764 0 1.435-.178 2.013-.535.595-.374 1.062-.773 1.402-1.198l2.064 2.574c-.595.663-1.376 1.24-2.345 1.733-.951.493-2.064.739-3.338.739Zm-.408-10.906c-.713 0-1.316.178-1.809.535-.476.356-.824.892-1.045 1.605h5.505c-.085-.713-.357-1.248-.816-1.605-.459-.357-1.07-.536-1.835-.536Zm8.492-2.804h3.899v1.912c.391-.714.884-1.266 1.478-1.657.595-.39 1.292-.586 2.09-.586h.459v3.67c-.459 0-.901.034-1.325.102-.408.05-.79.161-1.147.331a2.95 2.95 0 0 0-.943.713c-.255.306-.459.706-.612 1.198v7.671h-3.899V25.77Zm16.057 13.71c-1.122 0-2.133-.177-3.033-.534a7.04 7.04 0 0 1-2.268-1.504 6.801 6.801 0 0 1-1.453-2.242 7.535 7.535 0 0 1-.484-2.702c0-1.053.17-2.013.51-2.88a6.372 6.372 0 0 1 1.427-2.217 6.313 6.313 0 0 1 2.166-1.452c.833-.34 1.741-.51 2.727-.51.985 0 1.869.161 2.65.484a5.578 5.578 0 0 1 2.039 1.325c.561.561.985 1.24 1.274 2.04.306.798.459 1.681.459 2.65 0 .237-.017.518-.051.84a6.376 6.376 0 0 1-.076.765H396.2c.153.765.51 1.393 1.071 1.886.56.493 1.401.739 2.522.739.765 0 1.436-.178 2.014-.535.594-.374 1.062-.773 1.401-1.198l2.065 2.574c-.595.663-1.376 1.24-2.345 1.733-.951.493-2.064.739-3.338.739Zm-.408-10.906c-.714 0-1.317.178-1.81.535-.475.356-.824.892-1.044 1.605h5.504c-.085-.713-.357-1.248-.815-1.605-.459-.357-1.071-.536-1.835-.536Z"/></svg>